<?xml version="1.0" encoding="UTF-8"?>
<svg width="448px" height="448px" viewBox="0 0 448 448" version="1.1" xmlns="http://www.w3.org/2000/svg" xmlns:xlink="http://www.w3.org/1999/xlink">
    <!-- Generator: Sketch Beta 53 (72499) - https://sketchapp.com -->
    <title>email</title>
    <desc>Created with Sketch Beta.</desc>
    <g id="icons" stroke="none" stroke-width="1" fill="none" fill-rule="evenodd">
        <g id="email" fill="#ffffff" fill-rule="nonzero">
            <path d="M448,112.933662 L239.642605,261.034245 C230.276678,267.691553 217.723322,267.691553 208.357395,261.034245 L0,112.933662 L0,32.3 C0,14.5 14.3,0 31.9,0 L416,0 C433.6,0 448,14.5 448,32.3 L448,112.933662 Z M448,179.261708 L448,415.7 C448,433.5 433.6,448 416,448 L31.9,448 C14.3,448 0,433.5 0,415.7 L0,179.261708 L208.454396,326.054662 C217.778213,332.620466 230.221787,332.620466 239.545604,326.054662 L448,179.261708 Z" id="Shape"></path>
        </g>
    </g>
</svg>